<svg xmlns="http://www.w3.org/2000/svg" width="721" height="721" viewBox="0 0 191 191"><path d="M91.86 190.75a184.47 184.47 0 01-3.93-.23l-1.32-.12c-1.03-.09-3.54-.37-4-.44l-1.65-.24a96.8 96.8 0 01-17.6-4.42 99.33 99.33 0 00-1.28-.48 80.46 80.46 0 01-4.25-1.7A93.34 93.34 0 0138 171.6l-1.28-.97c-.38-.28-2.35-1.9-3.18-2.6-3.3-2.8-7.98-7.46-10.5-10.47a102.25 102.25 0 01-5.42-6.91 99.1 99.1 0 01-5.87-9.33 115.9 115.9 0 01-3.37-6.78 90.55 90.55 0 01-4.4-11.83 97.97 97.97 0 01-2.67-11.55c-.1-.68-.25-1.56-.32-1.96a68.14 68.14 0 01-.32-2.53c-.1-1-.22-1.95-.24-2.12-.12-1-.29-3.8-.37-6.28a70.95 70.95 0 010-5.74 102.16 102.16 0 01.53-7.75c.14-1.23.34-2.88.4-3.21l.28-1.72c.27-1.71.24-1.52.6-3.37a107 107 0 011.45-6.14l.27-.96a97.18 97.18 0 012.24-6.9l.6-1.6c.15-.42.33-.9.4-1.04l.54-1.29a62 62 0 011.1-2.52c.99-2.2 3.22-6.58 4.02-7.9a220.2 220.2 0 001.89-3.15c.25-.42 2.55-3.9 3-4.55 2-2.84 4.42-5.87 7.33-9.15 1.27-1.42 5.26-5.4 6.63-6.61a590.86 590.86 0 001.32-1.17 96.06 96.06 0 0129.9-17.75A100.13 100.13 0 0174.3 2.3a138.75 138.75 0 016.34-1.2 244.7 244.7 0 014.89-.64c.46-.07 3.3-.28 4.93-.37 1.96-.1 7.9-.1 9.86 0a129.87 129.87 0 015.57.45c.78.09 4.06.52 4.25.55l1.44.25a141.08 141.08 0 015.9 1.2c3.15.72 7.92 2.16 10.73 3.22a115.96 115.96 0 014.9 1.96 95.35 95.35 0 0130.55 21.04 98.3 98.3 0 019.73 11.68c.46.65 2.76 4.13 3.01 4.55a677.08 677.08 0 011.88 3.15c.8 1.32 3.04 5.7 4.03 7.9a62.74 62.74 0 011.1 2.52 67.07 67.07 0 011.77 4.53 111.41 111.41 0 012 6.3l.28.96c.36 1.25 1.05 4.22 1.44 6.14.37 1.85.33 1.66.6 3.37l.28 1.72a93.73 93.73 0 01.56 4.65 101.07 101.07 0 010 18.33l-.24 2.12a68.09 68.09 0 01-.32 2.53l-.32 1.96a102.74 102.74 0 01-.44 2.49 95 95 0 01-23.1 45.95 110.59 110.59 0 01-8.69 8.43c-.82.7-2.8 2.32-3.17 2.6l-1.29.97a92.54 92.54 0 01-12.41 7.95 95.78 95.78 0 01-17.92 7.36 78.13 78.13 0 01-3.56.98 101.96 101.96 0 01-7.06 1.51l-1.8.28-1.85.28c-.52.08-2.3.28-3.56.4l-1.8.16c-1.65.16-3.16.2-6.54.23-2.1.02-4.08.02-4.41 0zm9.02-1.5c.22-.03.94-.08 1.6-.13 1.2-.1 4.04-.37 4.55-.44l1.74-.25c3.84-.53 9.36-1.7 12.63-2.69 3.35-1 7.63-2.47 8.66-2.96a59.84 59.84 0 011.24-.51 95.97 95.97 0 0022.45-13.22 95.29 95.29 0 0014.71-14.57 93.35 93.35 0 0012.22-19.62c1.01-2.2.95-2.06 1.66-3.8a90.62 90.62 0 003.14-8.87 94.05 94.05 0 003.68-20.53c.24-3.17.18-11.16-.1-13.87l-.2-2.05a85.1 85.1 0 00-1.27-8.58 82.11 82.11 0 00-.28-1.4l-.24-1.09a104.2 104.2 0 00-2.7-9.58 17.01 17.01 0 01-.29-.84 6.2 6.2 0 00-.27-.77 2.14 2.14 0 01-.16-.4 95.18 95.18 0 00-11.05-21.3 44.66 44.66 0 01-.4-.55 110.95 110.95 0 00-2.52-3.41l-.85-1.08a94.86 94.86 0 00-24.63-21.7 51.36 51.36 0 00-1.68-1l-.96-.56a99.33 99.33 0 00-12.26-5.8l-1.49-.56a96.69 96.69 0 00-16.46-4.4l-1.97-.31a95.5 95.5 0 00-4.13-.52 31.69 31.69 0 01-.72-.08 93.8 93.8 0 00-6.24-.38 74.32 74.32 0 00-5.8 0 93.76 93.76 0 00-11.1.98l-1.97.32A93.51 93.51 0 0045.4 15.77a94.84 94.84 0 00-23.46 20.97l-.75.96a99.62 99.62 0 00-3.32 4.53 93.91 93.91 0 00-9.75 18.25l-.56 1.4A95 95 0 003.2 77.16a84.88 84.88 0 00-1.27 8.58l-.2 2.05a113.5 113.5 0 000 15.2l.16 1.64a85.25 85.25 0 00.63 5.09 92.23 92.23 0 005.92 21.33c.71 1.75.65 1.6 1.67 3.81a92.87 92.87 0 0012.86 20.4A95.93 95.93 0 0041 172.06a95.92 95.92 0 0018.47 10.22 59.85 59.85 0 011.25.51 102.55 102.55 0 0011.38 3.68c3.4.87 6.83 1.55 9.9 1.97l1.72.24c1.22.18 5.05.51 6.7.58.6.03 1.1.06 1.12.09.05.05 8.8-.04 9.34-.1zm-8.08-6.76a6.38 6.38 0 00-1.18-.08c-1.27-.02-1.6-.12-1.9-.58-.3-.44-.34-1.5-.1-2.04.1-.22.18-.24 1.13-.34l.61-.07c.16-.03.16-.03.05.34-.2.64-.22.95-.07 1.34.46 1.22 2.07.86 2.82-.64.46-.92.33-2.2-.24-2.33-.1-.02-.75-.07-1.46-.1-1.06-.07-1.35-.11-1.67-.26-1.09-.52-1.35-2-.61-3.46.58-1.14 1.53-1.59 2.86-1.36.3.06.85.1 1.22.1.8-.01 1.2.08 1.51.35.28.23.5.86.5 1.44v.41h-.66c-.37 0-.8.02-.96.06l-.3.06v-.6c0-.56-.02-.64-.21-.8-.4-.39-1.03-.37-1.73.05-.57.34-.89.86-.93 1.5-.05.56.06.77.52 1.06.29.18.37.19 1.74.19 1.68 0 1.76.03 2.16.76.45.83.35 2.68-.2 3.53a3.82 3.82 0 01-1.63 1.32c-.51.16-1.19.24-1.27.15zm5.91-2.9c0-2.65-.04-3.5-.31-5.9l-.06-.45h.47c.26 0 .65-.03.88-.05l.4-.05v2.27c.01 2.75.1 4.42.38 6.62.03.23.01.26-.2.3-.14.03-.55.05-.9.05h-.66v-2.79zm-12.42 2.39l-.56-.12a51.06 51.06 0 00-2.83-.4c-.32-.04-.6-.09-.62-.12a61.7 61.7 0 001.16-8.43v-.8l.26.06 1.47.29c.9.18 1.43.24 2.13.25h.93l-.24.65c-.12.35-.26.67-.3.71a13.9 13.9 0 01-2.44-.32c-.25-.1-.48.68-.64 2.18l-.06.49.35.13c.41.15 1.98.33 2.37.27.2-.03.26-.02.24.05a7.8 7.8 0 00-.14.68c-.1.56-.11.58-.34.58-.12 0-.64-.1-1.14-.2-.5-.12-1.05-.2-1.22-.19-.36.03-.39.11-.51 1.46-.07.7-.07.97 0 1.05.16.2 1.16.38 2.02.38h.8l-.05.46c-.09.77-.13.97-.23.96a6.76 6.76 0 01-.41-.07zm18.74-.08a2.2 2.2 0 01-1.25-.99 5.88 5.88 0 01-1.08-3.47c-.05-1.23.09-2 .47-2.74a3.75 3.75 0 012.54-1.87c.39-.1.93-.23 1.21-.32a5.85 5.85 0 012.46-.24c.43.1.53.16.98.62.43.45.67.85.57.94-.02.02-.4.11-.84.21l-.82.19-.39-.42c-.32-.35-.46-.44-.83-.52-.82-.2-1.32-.17-1.83.08a4.01 4.01 0 00-1.95 2.62 6.9 6.9 0 00.16 2.51 4.9 4.9 0 001.07 1.85c.42.4 1.5.9 1.96.9.43 0 1.22-.38 1.56-.77.49-.54.59-.91.53-2.05-.02-.54-.06-1.07-.09-1.19-.04-.2-.03-.2.62-.3 1.03-.15.94-.22.94.77 0 1.5.12 2.3.44 2.94.15.3.27.56.26.57a30.65 30.65 0 00-4.58.72 4.3 4.3 0 01-2.11-.04zm9.47-2.16c0-.8-.04-1-.74-3.7-.4-1.56-.83-3.03-.94-3.26a3.63 3.63 0 00-.48-.74l-.29-.32.35-.09.93-.24c.53-.14.61-.15.77-.04a173 173 0 013.05 2.8 60.53 60.53 0 002.91 2.62 74.55 74.55 0 00-1.8-6.63c.04-.05 1.48-.43 1.62-.43.05 0 .07.26.05.66-.02.57.03.85.31 1.95l.6 2.32c.72 2.79.77 2.95 1.05 3.38.16.24.34.46.4.5.06.03-.3.16-.94.32l-1.04.26-.53-.46a388.51 388.51 0 01-2.9-2.62 55.68 55.68 0 00-2.39-2.11c-.07.07 1.35 5.32 1.54 5.7.2.41.25.6.13.6l-.86.2-.8.18v-.85zm-39.49.27a36.1 36.1 0 01-1.28-.3l-1.73-.5c-.07-.02.02-.26.26-.74.27-.52.46-1.1.75-2.23.92-3.58 1.17-4.79 1.12-5.5-.02-.3 0-.39.1-.39.13 0 .55.1 1.92.47.5.13 1.23.28 1.6.33.85.11 1.58.33 2.04.6 1.2.7 1.29 3.73.18 5.94a5.12 5.12 0 01-2.16 2.26c-.62.3-1.65.32-2.8.06zm1.18-.75c1.87-.66 3.24-3.1 2.94-5.23a4.28 4.28 0 00-.27-1.02c-.33-.69-1.14-1.3-1.73-1.3-.48 0-1.29.25-1.4.43-.15.22-.47 1.21-.75 2.26l-.48 1.81c-.62 2.26-.6 2.67.24 3.05.42.2.9.2 1.45 0zm-17.53-5.1c-.64-.26-1.18-.6-1.3-.8-.06-.11-.09-.7-.09-2 0-2.06-.05-2.28-.54-2.71-.28-.26-.54-.29-.72-.08-.2.23-1.25 2.45-1.53 3.24-.03.08-.08.14-.12.14-.06 0-1.46-.7-1.53-.76a37.84 37.84 0 002.7-4.9c1.07-2.15 1.2-2.45 1.27-2.99l.05-.4.89.48c1.18.64 1.75.9 2.4 1.12.38.12.7.3 1.02.56.4.34.48.44.55.8.1.49.02.94-.32 1.61-.37.76-1.08 1.27-2.14 1.57l-.48.13.03 1.17c.1 3.16.08 2.98.3 3.49l.21.5c0 .07-.22.01-.65-.16zm.05-6.12c.94-.5 1.57-1.64 1.34-2.41a1.5 1.5 0 00-.87-.87 1.47 1.47 0 00-.58.05c-.6.15-1.05.67-1.65 1.89l-.5 1.03.18.15a2.1 2.1 0 002.08.16zm76.35 5.01c-.2-.1-.48-.34-.65-.58-.31-.4-.6-1.15-.51-1.36a9.21 9.21 0 011.4-1.04c.02 0 .08.18.13.41.12.54.34.9.69 1.14.22.15.35.18.7.15.37-.03.47-.07.75-.35.36-.37.54-.93.54-1.73 0-.61-.31-1.42-.69-1.74-.42-.37-.67-.33-1.8.27-1.57.85-2.16.94-2.93.42-.8-.53-1.3-2.07-1.07-3.2.17-.83.82-1.44 2-1.88.3-.11.56-.23.6-.27a8.31 8.31 0 01.6-.35c.67-.38.95-.43 1.35-.22.37.2.9.76 1.03 1.12.1.24.09.24-.27.38-.2.07-.55.3-.78.48l-.43.35-.24-.43c-.42-.74-.82-.87-1.47-.45a2 2 0 00-.7 2.52c.46.9 1.39.82 2.9-.27.3-.23.64-.45.75-.5.27-.12.98.05 1.34.32a5.24 5.24 0 011.47 2.82 2 2 0 01-.13.97c-.4 1.16-.73 1.54-1.76 2.03-.38.18-.84.43-1.03.56-.81.54-1.32.67-1.79.43zm-84.97-3.37a77.86 77.86 0 00-3.23-2.21l-.45-.28.19-.2c.48-.52 1.33-1.76 3.56-5.18.23-.35.62-1.05.87-1.54l.45-.9.25.17 1.25.91c.96.71 1.99 1.32 2.4 1.42.2.05.19.07-.35.61l-.56.56-.88-.6a47.83 47.83 0 01-1.08-.76c-.33-.25-.39-.2-1.26 1.12l-.6.91.22.24c.3.31.91.72 1.64 1.08l.62.31c.03.03-.7.98-.8 1.05a4.1 4.1 0 01-.98-.63c-1.3-1-1.42-1.03-1.7-.6a9.67 9.67 0 00-1 1.81c0 .27.92.95 1.81 1.34l.6.25-.4.62-.43.6a.61.61 0 01-.14-.1zm94.51-2.92c-2.43-3.77-3.81-5.63-4.19-5.63-.2 0-1.4.93-1.66 1.29-.1.13-.2.21-.23.18a8.33 8.33 0 01-.56-1.43l1.56-1a31.08 31.08 0 003.1-2.2c.62-.53.72-.61.77-.61.06 0 .66 1.02.66 1.11 0 .04-.4.34-.88.68-.48.35-.9.68-.92.75-.11.3 1.94 3.54 3.54 5.6l.76.97c.04.05-.2.26-.65.58-.4.27-.73.5-.76.5-.02 0-.26-.36-.54-.79zm-101.42-1.8l-.79-.64.35-.22c.63-.4 1.62-1.46 2.62-2.81l.67-.87c.25-.33.45-.64.43-.69-.05-.15-.39-.05-1.02.3a95.8 95.8 0 00-3.94 2.28c-.08.07-.2.28-.27.47-.08.2-.17.35-.2.35-.07 0-1.28-1.03-1.28-1.09l.81-2.46.84-2.54.15-.56c.17-.6.16-.74-.03-.71-.13.02-.66.63-2.88 3.31-.45.56-.72.9-.8 1.07-.1.18-.1.17-.66-.28-.3-.25-.55-.48-.55-.5 0-.01.42-.47.94-1a42.34 42.34 0 001.74-1.94l1.34-1.58a9.15 9.15 0 001.57-2.2c.07-.22.13-.4.15-.41.04-.06 1.63 1.36 1.63 1.45 0 .05-.2.65-.43 1.34a78.03 78.03 0 00-1.73 5.56c0 .07.06.14.13.14.16 0 1.53-.74 4.25-2.3 1.1-.63 2.05-1.15 2.1-1.15.1 0 1.53 1.2 1.53 1.3 0 .02-.12.12-.26.21-.54.34-2.23 2.21-4.51 5.02a5.34 5.34 0 00-1.06 1.8c-.03 0-.41-.29-.84-.64zm107.72-2.36c-.4-.22-.61-.43-2-2a93.23 93.23 0 00-1.44-1.6c-.05-.04-.46-.5-.93-1.03a8.47 8.47 0 00-1.58-1.49 10 10 0 01.69-.68c.56-.52.69-.6.77-.52a80.84 80.84 0 003.93 4.71c.72.78 1.5 1.17 1.99.98.36-.13.92-.71 1.07-1.1.28-.74-.04-2.03-.79-3.14-.46-.7-1.22-1.59-2.4-2.84l-1.04-1.1.6-.57c.33-.31.62-.57.65-.57.03 0 .27.32.54.71.47.68 1.6 2.07 2.32 2.83l1.52 1.65c.65.7 1.3 1.35 1.43 1.44l.24.16-.61.61-.61.62-.27-.28c-.33-.35-.35-.34-.87.56-1.23 2.1-1.4 2.32-1.9 2.6-.4.22-.95.23-1.3.05zm-52.7-.12c-1.37-.1-3.16-.63-4.8-1.41-.51-.24-.5-.24.5-.54 1.66-.5 1.48-.48 2.33-.21.41.13 1.05.28 1.4.33.82.12 2.98.06 3.9-.11a9.94 9.94 0 003.6-1.5c.8-.59 2.24-2 3.25-3.19l.36-.42.54.44c.3.25.54.49.54.54 0 .11-1.08 1.53-1.7 2.25a12.14 12.14 0 01-9.93 3.82zm10.57-2.53c.07-.08.3-.35.53-.59.22-.24.56-.65.75-.9l.34-.46 1.08-.02 1.08-.02-.66-.96a38.06 38.06 0 00-1.99-2.65 14.2 14.2 0 00-3.45-2.86c-.44-.27-.8-.52-.8-.56 0-.08.55-2.09.58-2.12.04-.04 2.6 1.7 3.27 2.22a17.94 17.94 0 013.82 4.06c.63.98 1.27 2.45 1.66 3.78l.12.42-.42.2c-.37.16-1.1.34-2.02.48-.17.02-1.15.07-2.16.09-1.8.04-1.84.04-1.73-.1zm-10.14 0c-.43-.06-1.83-.36-1.9-.4-.05-.03.31-.25.8-.5a19.5 19.5 0 001.34-.76l.49-.32.6.34 1.42.75c.45.23.82.44.82.47 0 .05-.58.2-1.28.32-.49.1-1.9.15-2.29.1zm-12.2-.1c-1-.1-1.8-.28-2.41-.57-.51-.24-.66-.4-.52-.58a38.25 38.25 0 012.23-4.6c.21-.33.32-.43.47-.43.16 0 .22.06.28.26.04.14.22.62.4 1.06.4.93.43 1.23.19 1.56-.22.3-.58 1.1-.52 1.16.1.1 3.29.04 4.08-.07a18.6 18.6 0 004.76-1.4l.44-.23.86.77c1 .9 1.04.76-.32 1.4-1.2.58-1.57.73-2.52 1.06-1.6.55-2.1.62-4.52.64-1.19.02-2.5 0-2.9-.04zm15.33-1.83c-2.18-1.17-2.65-1.5-3.93-2.78a11.1 11.1 0 01-2.28-3c-.2-.41-.23-.53-.15-.59.15-.09 2.07-.55 2.31-.55.16 0 .25.1.43.4.36.65 1.38 1.92 2.09 2.59a11.3 11.3 0 005 2.83c.5.14.5.14.36.3a7.96 7.96 0 01-2.32 1.58c-.04 0-.71-.35-1.5-.77zm-67.5-.94a66.4 66.4 0 00-1.36-1.49c-.7-.75-1.3-1.4-1.3-1.43-.02-.03.4-.44.92-.9 1.5-1.35 4.6-4.42 5.03-5l.4-.54.62.65a4 4 0 01.62.75c0 .05-.19.23-.4.4-1.42 1.01-5.15 4.62-5.26 5.07-.05.22-.01.27.46.7.28.26.8.66 1.13.9l.62.42-.66.3c-.75.33-.71.32-.82.17zm124.12-.62a23.56 23.56 0 01-.32-.55c-.23-.4-1.54-1.7-3.51-3.48-1.26-1.14-2.37-1.97-2.62-1.97-.07 0-.1-.03-.1-.07.02-.04.51-.59 1.1-1.21.58-.63 1.27-1.41 1.53-1.75a4 4 0 011.37-1.31c.45-.24.86-.25 1.55-.06a6.92 6.92 0 014.47 4.35 3.4 3.4 0 01-.42 3.02c-.35.49-1.7 2-2.38 2.67l-.56.55zm1.35-2.14c.36-.17.68-.54.82-.96.16-.47.11-1.69-.08-2.31a5.38 5.38 0 00-3.16-3.32 2.53 2.53 0 00-2.36.25c-.42.27-.48.35-.6.73-.2.7-.23.98-.1 1.25.2.37 3.15 3.25 4.21 4.1.57.45.75.5 1.27.26zm-71.02 1.74c-.69-.9-1.25-3.33-1.25-5.4a9.6 9.6 0 011.67-5.59 17.3 17.3 0 012.64-2.82c.63-.53 1.7-1.27 1.75-1.22.02.01-.1.5-.26 1.1l-.3 1.07-.9.88a8.62 8.62 0 00-2.65 4.72l-.12.62c-.14.74-.19 2.47-.08 3.07.1.62.63 2.33.88 2.86.17.38.22.76.1.84-.05.02-.35.07-.68.1l-.6.05zm17.38-.03c-1.93-.57-2.98-1-2.88-1.18l.36-.54c.16-.24.48-.8.72-1.24.23-.44.46-.85.5-.9.06-.08.2-.03.6.2.82.44 1.9 1.2 2.45 1.7l.5.46-.25.31a7.13 7.13 0 01-1.5 1.3 4.07 4.07 0 01-.5-.11zm-14.4-.42a904.29 904.29 0 00-.34-1.17 3.5 3.5 0 01-.17-.78c.03-.04 2.3-1.5 2.66-1.7.12-.07.22.13.9 1.78l.47 1.16-.69.31c-.72.32-2.34.86-2.58.86-.09 0-.17-.14-.26-.46zm9.56-2.63a10.6 10.6 0 01-1.05-1.1c0-.04.18-.4.4-.8a14.23 14.23 0 001.53-3.31c.1-.63.05-3.43-.09-4.09l-.11-.56c-.33-1.63-1.5-4.96-1.9-5.38-.34-.36-.83-.19-1.2.43-.29.45-.85 1.72-1.2 2.67a16.97 16.97 0 00-.96 4.62c0 .4-.03.5-.14.53l-1.25.37c-.62.18-1.15.33-1.19.33-.11 0-.07-2.23.06-3.08.2-1.41.9-3.54 1.57-4.88.99-1.97 2.63-4.17 3.47-4.66.53-.32.67-.28 1.22.29.62.65 1.01 1.2 1.72 2.36 1.3 2.17 2.49 4.95 2.8 6.6.16.82.17 1.08.13 2.25a35.18 35.18 0 01-.17 2.24c-.1.8-.36 1.8-.69 2.57a24.78 24.78 0 01-1.77 3.6 6.3 6.3 0 01-1.18-1zm-10.6-.74c-.04-.2-.1-.8-.13-1.3l-.05-.93.24-.17c.41-.3 1.99-1.1 2.8-1.45a14.55 14.55 0 016.43-1.22c.87 0 .9.04.72.67-.2.63-.5 1.4-.6 1.5-.05.06-.58.1-1.36.11a8.3 8.3 0 00-2.45.32c-1.37.33-1.99.6-3.27 1.4l-1.36.87-.65.43-.22.15zm-61.48-.55c-.29-.39-.55-.74-.58-.8-.04-.06.18-.37.58-.84.75-.87 1.12-1.4 1.12-1.6 0-.08-.2-.4-.45-.73l-.66-.89c-.14-.2-.27-.3-.41-.3-.11 0-.73.25-1.36.56-.64.3-1.19.56-1.22.56-.1 0-.8-.9-.73-.96.03-.03.48-.2.99-.39 3.35-1.19 6.73-2.55 7.03-2.84.1-.1.26-.3.33-.44l.14-.26.48.66c.84 1.14.81.98.3 1.59-.67.78-.66.78-1.35 1.68a36.69 36.69 0 00-3.67 5.7l-.54-.7zm2.22-4.58c.47-.57 1.3-1.8 1.3-1.92 0-.06-.02-.1-.06-.1-.28 0-2.47.82-2.65 1-.1.1-.08.16.1.48.31.51.68.92.86.92.08 0 .28-.17.45-.38zm78.39 2.2a5.44 5.44 0 01-.86-.49 6.85 6.85 0 01-.28-.73c-.66-2-1.02-2.66-1.99-3.7a2.52 2.52 0 01-.61-.89c-.14-.55-.39-1.89-.36-1.92.05-.05 1.57 1.27 2.08 1.82a11.06 11.06 0 012.22 3.73c.27.75.66 2.32.62 2.48-.01.06-.3-.04-.82-.3zm54.9-1.12a46.78 46.78 0 00-5.2-4.05c-.68-.45-1.26-.86-1.31-.93-.08-.09 0-.24.4-.76.26-.36.5-.65.53-.65.02 0 .4.32.85.7a34.29 34.29 0 002.1 1.7 43.5 43.5 0 001.27.97c.96.68 1.9 1.32 2.47 1.7l.62.4-.54.7c-.3.4-.56.72-.58.72-.03 0-.3-.22-.6-.5zm-74.13.25c.22-.98.68-1.98 1.24-2.68.32-.4.9-.91 1.04-.91.02 0 .03.58.03 1.3v1.3l-1.12.56-1.18.59c-.03.01-.03-.06 0-.16zm16.43-.69l-.71-.45.05-.72a21 21 0 00.05-1v-.3l.16.2c.15.19.38.64.75 1.45.16.35.46 1.22.43 1.25 0 .01-.34-.18-.73-.43zm-9.55-2.6c.14-1.52.58-3.36 1.14-4.7.33-.8.92-2.02.99-2.02.06 0 .28.53.72 1.72.7 1.91 1.02 3.28 1.16 4.96l.05.62-.46-.06c-.6-.08-2.75-.08-3.27 0l-.39.06.06-.58zm-73.66-1.22c-.68-.25-.84-.46-2.05-2.57l-.7-1.23c-.19-.32-.2-.34-.05-.39.75-.26 2.98-1.52 4.9-2.76.35-.24.97-.63 1.35-.87s.88-.6 1.08-.8l.38-.34.13.19.68 1.06c.3.49.74 1.1.96 1.37.62.73.88 1.75.62 2.39-.13.3-.75.88-1.19 1.1a3.7 3.7 0 01-.8.24c-.43.08-.6.08-1-.03-.65-.17-.75-.13-.75.3 0 .49-.39 1.24-.81 1.59-.63.5-1.3.8-1.9.84-.34.02-.65-.02-.85-.09zm1.22-1.65c.32-.16.57-.36.73-.58.23-.3.24-.39.24-1 0-.55-.03-.7-.22-1.08-.12-.23-.29-.44-.36-.45-.15-.03-1.73.96-2.36 1.48-.23.2-.43.42-.46.5-.11.35.45 1.06 1 1.28.4.16.91.1 1.43-.15zm3.57-2.36c.82-.25 1.36-.87 1.29-1.49-.05-.4-.26-.92-.45-1.09-.29-.26-.65-.18-1.8.4-.6.31-1.2.66-1.33.78l-.23.22.16.32c.4.79 1.4 1.15 2.36.86zm81.46 3.2a19.3 19.3 0 00-3.12-2.54c-1-.59-1.56-1.29-3.54-4.44-1.34-2.14-1.84-2.73-2.66-3.13-1.17-.57-2.37-.12-3.87 1.46-.96 1-1.62 1.99-2.35 3.5-.51 1.06-1.12 1.6-2.78 2.42a14.9 14.9 0 00-2.9 1.9c-.38.32-.47.37-.47.25 0-.65-1.42-5.27-2.05-6.66a4.7 4.7 0 01-.2-.46 25.94 25.94 0 00-5.22-7.93 32.27 32.27 0 00-3.07-2.68c-.44-.33-1.95-1.37-3.37-2.3-3.08-2.05-3.08-2.06-4-2.79a33.32 33.32 0 01-4.62-4.61c-.8-.96-.7-.84-1.5-1.93-.88-1.18-1-1.49-.96-2.17.06-.9.46-1.58 1.14-1.97.75-.43 1.28-.33 2.36.41a152.67 152.67 0 016.62 4.85c1.78 1.3 3.82 2.64 4.05 2.64.18 0 .64-.45.64-.62 0-.4-1.3-2.55-2.39-3.96a504.53 504.53 0 00-3.67-4.64 504.06 504.06 0 01-3.26-4.14 131.6 131.6 0 01-3.25-4.39c-1.07-1.64-2.19-4.4-2.31-5.67-.03-.34 0-.6.17-1.1.25-.8.7-1.39 1.29-1.7.53-.28.56-.28 1.12-.28.86 0 1.3.33 2.72 2.07l1.28 1.52c.53.62 1.1 1.32 1.28 1.54l1.68 2.05 2.52 3.07c3.82 4.67 4.53 5.45 5.38 6 .46.29.6.28.94-.05.21-.21.27-.34.27-.57 0-.37-.45-1.9-.94-3.2l-.63-1.7a18.26 18.26 0 00-.35-.88 18.86 18.86 0 01-.35-.88 231.98 231.98 0 00-1.55-3.97 45.4 45.4 0 00-.43-1.08 48.92 48.92 0 01-.44-1.12 333.5 333.5 0 00-1-2.57c-.12-.35-.4-1.07-.6-1.6a94.26 94.26 0 01-.57-1.49l-.51-1.4c-.99-2.64-1.13-3.18-1.13-4.25 0-.86.14-1.61.38-2.11.3-.6.88-.98 1.53-.98.55 0 .89.15 1.38.61.89.83 1.55 2.1 3.53 6.73a64.2 64.2 0 003.48 7.06c1.89 3.44 4.72 8.08 5.32 8.71.31.33 1.1.72 1.86.92.73.2 1.06.12 1.53-.36.3-.3.42-.52.7-1.3.46-1.27.52-1.66.46-3.04a212.5 212.5 0 00-.25-4.37c-.33-4.35-.72-11.26-.71-12.71 0-.85.02-.97.23-1.39a2.76 2.76 0 011.22-1.26 2.38 2.38 0 012 .02c.38.2.88.67 1.06 1 .31.59 1.17 4.48 1.77 8.08l.28 1.6.25 1.53c.4 2.47.85 5.07 1.2 6.85.2.99.4 2.25.44 2.8.05.56.14 1.3.2 1.64.18.9.7 2.37 1.24 3.44 1.38 2.77 3.27 4.23 5.53 4.27.42 0 .91-.02 1.09-.05 1.73-.3 3.7-1.4 5.61-3.1 1.16-1.04 2.13-2.15 3.97-4.58a267.09 267.09 0 013.4-4.43c1.15-1.49 1.98-2.34 2.56-2.62 1.06-.52 2.87-.1 3.46.79.34.5.53 1.19.57 2.05.07 1.47-.32 2.4-2.24 5.27a84.64 84.64 0 00-2.44 3.82 109.11 109.11 0 00-5.3 9.75c-3.7 7.89-6.06 15.85-7.63 25.75l-.26 1.56c-.01.03-.38-.32-.82-.76zm56.72.64a6.1 6.1 0 01-3.33-1.76 4.04 4.04 0 01-.91-1.16 4.08 4.08 0 01-.09-3.78c.08-.17.23-.58.32-.93.26-.97.73-1.54 1.6-1.94a4.45 4.45 0 012.49-.14 6.55 6.55 0 014.07 3.34c.45.96.36 2.67-.2 3.51a3.71 3.71 0 00-.27.63c-.6 1.76-1.93 2.56-3.68 2.23zm2.11-1.83c.5-.25.93-.63 1.15-1.03.11-.2.14-.45.14-1.1 0-.84 0-.86-.32-1.44a5.37 5.37 0 00-3.06-2.55c-.58-.18-.77-.2-1.4-.17-.85.05-1.17.17-1.77.7-.63.56-.76.98-.62 1.94a4.9 4.9 0 002.7 3.41c.84.41 1.25.5 2.03.48a2.3 2.3 0 001.15-.24zM43.56 115.97a16.54 16.54 0 01-3.09-.56 6.59 6.59 0 01-1.84-.76c0-.09.27-.56.59-1.04a12.63 12.63 0 013.14-3.18 12.56 12.56 0 015-1.96c.12-.03.71-.07 1.33-.09a10.8 10.8 0 013.84.55c1.61.55 2.14.98 2.13 1.73 0 .97-1.48 3-2.85 3.93a8.15 8.15 0 01-3.2 1.26c-.88.16-3.89.23-5.05.12zm-16.51-6.26a58.74 58.74 0 00-1.99-.06 5.2 5.2 0 01-.94-.05c0-.13.53-1.38.85-2 1.76-3.45 4.65-5.81 7.95-6.5a10.97 10.97 0 016.05.48c1.5.56 1.92 1.29 1.5 2.55-.7 2.06-2.19 4-3.67 4.78-1.53.8-2.29.9-5.98.88a127.42 127.42 0 01-3.77-.08zm142.77.04l-2.8-.27a142.85 142.85 0 01-2.9-.27 27.38 27.38 0 00-.91-.13c-2.2-.27-3.21-.52-4.25-1.03-1.71-.85-3.1-2.71-3.72-5-.4-1.43-.34-1.96.25-2.48.41-.36.65-.45 2.07-.76.13-.03.83-.07 1.56-.1a9.89 9.89 0 013.6.47 11.6 11.6 0 016.12 5.05c.42.71.92 1.8 1.21 2.62.18.51.53 1.77.53 1.9 0 .05-.6.05-.76 0zm-32.39-2.76l-.48-.1c-1.66-.4-4.03-1.7-4.52-2.5-.24-.4-.22-.94.06-1.48a11.84 11.84 0 014.14-4.11 13.59 13.59 0 014.13-1.48 18.2 18.2 0 014.13-.04c.99.16 2.37.54 3.36.93 1.22.49 3.22 1.57 3.16 1.73a156.66 156.66 0 00-2.47 1.97 127.84 127.84 0 01-2.59 2c-.08.07-.64.45-1.24.86a14.38 14.38 0 01-3.83 1.95c-.9.28-1.03.3-2.24.32-.7.01-1.43 0-1.6-.05zm-87.87-4.53c-1.2-.21-2.29-.73-4.96-2.34-1.4-.85-1.57-.96-3.48-2.19l-1.83-1.17-.26-.16.38-.25a20.17 20.17 0 015.63-2.59c1.65-.42 1.83-.44 3.61-.44 1.63 0 1.77.01 2.6.23 2.23.57 4.1 1.72 5.48 3.36 1.6 1.89 1.49 2.5-.66 3.92a10.3 10.3 0 01-3.79 1.64c-.72.14-1.94.13-2.72 0zm-30.65-.7a24.27 24.27 0 01-8.41-2.04c-1.45-.61-1.62-.69-1.6-.75a45.5 45.5 0 013.36-3.77c2.29-2.3 4.2-3.65 6.41-4.56a13 13 0 016.53-.94c.82.14 2.27.53 2.77.75 1.67.73 2.61 1.32 3.09 1.92.22.28.24.36.23.9 0 .55-.04.68-.34 1.3a14.95 14.95 0 01-5.75 5.87 14.45 14.45 0 01-4.78 1.22c-.37.02-.85.06-1.07.09-.22.02-.42.02-.44 0zm147.79-3.63a8.72 8.72 0 01-2.55-.71 15.84 15.84 0 01-5.48-4.54 6.22 6.22 0 01-.95-1.88c-.2-1.13 1.96-2.82 4.9-3.82a13.95 13.95 0 011.54-.43 15 15 0 015.1.22c2.36.57 4.82 1.84 7.2 3.74.6.48 2.2 1.92 3.14 2.82l1.1 1.08-1.07.57c-3.07 1.64-5.12 2.44-7.44 2.88-.9.18-1.36.22-2.73.24-1.46.02-1.77 0-2.77-.17zm-61.2-4.16a17.4 17.4 0 01-1.28-6.18c.01-5.59 3.17-10.43 9.07-13.9 1.2-.72 4.1-2.1 4.19-2 .01 0 .08.47.15 1.02a37.9 37.9 0 010 7.38l-.2 1.22c-.3 1.82-.96 3.87-1.73 5.37a13.65 13.65 0 01-8.86 7.16c-.57.16-1.07.28-1.11.28-.04 0-.14-.16-.23-.35zm36.9-.2c-2.85-.73-5.8-3.04-5.8-4.55 0-1.88 2.81-5.3 5.4-6.56 1.03-.5 1.39-.56 2.93-.56 2.73.01 5.07.7 7.62 2.22 1.05.63 2.8 1.91 2.8 2.05 0 .07-1.35 1.69-2.11 2.54a17.46 17.46 0 01-4.72 3.93c-.69.37-1.99.81-2.86.96-.93.17-2.54.15-3.25-.03zM53.95 90.2c-.02-.02-.29-.07-.6-.1a104.45 104.45 0 01-8.62-1.44l-2.31-.44a8.17 8.17 0 01-.86-.19 8.8 8.8 0 01.85-2.12c.63-1.2 1.25-2.08 2.12-2.95.83-.83.93-.92 1.74-1.46 1.47-1 3.22-1.65 5.13-1.92.54-.08 3.17-.08 3.76 0 1.5.18 3.54.73 4.87 1.3 2.32.98 3.1 2.01 2.7 3.56-.17.7-.67 1.8-1.09 2.43a7.03 7.03 0 01-4.97 3.23c-.34.07-2.66.15-2.72.1zm70.43-3.27c-1.64-.23-4.01-1.4-4.41-2.16-.3-.57-.03-1.55.83-3.02 1.37-2.37 3.02-3.73 5.29-4.34.73-.2.88-.21 2.66-.22 1.03 0 2.08.02 2.32.06 1.67.21 3.33.7 4.75 1.38l.78.38-.13.25c-.51 1-1.77 2.79-2.64 3.74a12.58 12.58 0 01-6.33 3.82c-.62.14-2.4.2-3.12.1zm-95.24-.37a17.26 17.26 0 01-2.99-.55 12.5 12.5 0 01-2.36-.92c-.04-.03.34-.44.84-.9 2.7-2.54 5.07-3.91 7.76-4.5 2.08-.45 3.68-.3 5.25.48 1.19.6 1.47.94 1.38 1.68-.1.9-2.51 3.26-3.97 3.9l-.7.3c-.43.2-1.14.37-1.9.48-.58.08-2.55.1-3.3.03zm130.55-3.88a4.99 4.99 0 01-2.65-1.25c-.95-.86-2.16-3.1-2.06-3.82.09-.64.43-.99 1.42-1.46a6.5 6.5 0 014.53-.4c.6.16 1.73.72 2.35 1.17.76.55 1.78 1.66 2.4 2.6.57.84 1.37 2.32 1.3 2.4a135.57 135.57 0 00-1.88.29c-2.73.38-4.75.56-5.4.47zm-72.93-2.68a4.82 4.82 0 01-3.05-2.35c-.34-.6-.82-1.85-.98-2.55a22.01 22.01 0 01-.16-6.56c0-.13.06-.14.5-.1.82.09 2.23.43 2.87.71 2 .88 3.4 2.53 3.97 4.69.32 1.21.36 3.05.09 4.31a81.88 81.88 0 01-.21.9l-.18.74-.33.1c-.86.23-1.77.27-2.52.1zm53.95-2.25c-1.88-.43-4.1-2.47-4.1-3.77 0-.43.22-.95.63-1.45.79-.98 2.66-2.37 4.15-3.08 3.6-1.73 7.14-1.57 10.18.45a12.9 12.9 0 012.33 2.17l.18.26-.18.11c-.17.11-1.05.6-3.25 1.83l-1.5.86c-.74.45-3.45 1.8-4.21 2.12-.37.15-.92.34-1.2.42-.71.18-2.37.23-3.03.08zm-42.15-.24c-.86-.47-1.34-1.6-1.56-3.73-.17-1.63-.01-3.16.45-4.55.97-2.88 3.09-5.07 7.45-7.67 1.8-1.08 3.65-2.2 3.74-2.28.17-.14.32-.15.35-.02.26 1.32.44 3.15.44 4.58 0 .88-.16 2.85-.28 3.38-.74 3.44-1.76 5.48-3.69 7.4a10.25 10.25 0 01-4.17 2.66c-.66.24-.95.3-1.64.32-.68.03-.9.01-1.09-.09zm-28.3-.44a6.58 6.58 0 01-2.04-.94c-.7-.5-1.85-1.69-3.96-4.08-2.04-2.31-2-2.27-1.95-2.33.12-.11 1.92-.78 2.57-.95 2.84-.73 5.42-.32 7.56 1.2 1.96 1.4 3.62 4.24 3.17 5.43-.19.49-.92.95-2.22 1.4-.8.26-.97.3-1.84.32-.53.01-1.11-.01-1.3-.05zm-16.3-.67a45.78 45.78 0 01-3.8-.98l-2.22-.64a310 310 0 01-1.42-.41l-.5-.15.39-.6c1.32-2.01 3.35-3.63 5.33-4.24a8.6 8.6 0 017.24 1.01c.57.35 1.09.81 1.28 1.17.15.27.12.93-.06 1.34a8.19 8.19 0 01-2.44 2.72c-.8.53-1.6.75-2.76.79a7.2 7.2 0 01-1.05 0zm-22.17-2.9a14.42 14.42 0 01-6.85-3.08c-3.22-2.59-5.08-5.78-5.51-9.43-.21-1.76.1-4.5.75-6.48l.2-.63-.4-1.62a66.48 66.48 0 01-.46-1.86 7.8 7.8 0 01-.18-1.87c.03-.44.06-.54.25-.7.26-.23.43-.24.68-.06.17.12.56.85.81 1.55.15.39.49.88.61.88.06 0 .12-.15.15-.38l.25-2.02a68.85 68.85 0 01.37-2.57c.05-.29.12-.58.16-.66.14-.27.75-.34 1.63-.17 1.11.2 1.75.28 2.28.26.78-.04.94-.16 1.34-1.03.59-1.28 1.1-1.4 1.5-.35.35.9.61 2.66.66 4.35.04 1.2-.05 1.63-.34 1.83-.3.19-1.38.21-2.98.06-.8-.07-1.48-.12-1.5-.1-.02.02.79.79 1.79 1.71a1149.59 1149.59 0 013.87 3.57 2215.53 2215.53 0 016.6 6.09l2.64 2.42c.7.65 1.32 1.19 1.35 1.19.11 0 .53-1 .71-1.67.14-.53.22-1.05.36-2.3.15-1.35.3-2.37.37-2.59.14-.44.56-.56.85-.24.26.28.33.48.59 1.5.8 3.23.78 6.38-.03 8.34a7.41 7.41 0 01-1.81 2.66 11.47 11.47 0 01-6.66 3.44c-.73.11-3.28.09-4.05-.04zm3.8-5.73c1.51-.32 2.94-.9 4.1-1.65a5.48 5.48 0 001.28-1.08c0-.06-.69-.7-2.77-2.61l-3-2.77a1324.5 1324.5 0 00-5.14-4.73 165.65 165.65 0 00-5.88-5.35c-.17-.04-.6.56-.77 1.07-.2.55-.2.9-.04 1.13.07.1.78.63 1.58 1.2 3.16 2.2 4.9 3.7 5.5 4.74.28.5.6 1.28.7 1.8l.14.63c.13.6.12 3.7-.02 5-.15 1.45-.14 2.35.02 2.52.37.36 2.77.42 4.3.1zm-5.88-.82c.3-.56.07-2.09-.48-3.24-.59-1.24-1.1-1.79-3.41-3.65a52.24 52.24 0 01-3.21-2.71c0-.03-.23-.29-.5-.57l-.48-.52.04 1.2c.02.7.09 1.35.16 1.56a10.02 10.02 0 00.77 2.13c.74 1.5 2.05 2.99 3.74 4.25 1.64 1.24 2.57 1.8 2.98 1.8.21 0 .28-.04.39-.25zm99.4 3.73c-1.7-.27-4.31-1.5-5.33-2.51-.59-.6-.75-1-.7-1.75.05-.8.39-1.61 1.2-2.83.69-1.05.93-1.35 1.66-2.09a11.2 11.2 0 016.59-3.28c.6-.1 2.94-.07 3.47.04l1.01.2c1.52.31 3.55 1.13 5.21 2.11 1.29.76 1.3.56-.08 1.86l-2.86 2.72a93.2 93.2 0 01-3.82 3.47 9.94 9.94 0 01-3.27 1.83c-.57.19-.85.22-1.76.25-.6 0-1.19 0-1.32-.02zm33.07-1.24c-.28-.46-.35-.78-.3-1.46.05-.91.3-1.62.76-2.2.31-.4 4.13-4.47 6.95-7.4.93-.97 1.12-1.27 1.06-1.69-.08-.57-.72-1.2-1.36-1.32-.6-.11-.78.02-2.87 2.12a229.37 229.37 0 00-3.29 3.38c-1.48 1.57-1.52 1.64-1.52 2.72 0 .71-.13 1-.5 1.08-.94.2-2.37.45-2.88.5-.89.07-.89.07-.96-2.1a42.2 42.2 0 00-.11-2.14c-.1-.86.06-1 1.32-1.19.33-.04.68-.15.8-.23.37-.26 5.2-5.32 5.68-5.94.47-.6.8-1.68.72-2.36-.02-.22 0-.4.05-.44.1-.08 1.74-.29 2.94-.37l.77-.05.21.25c.41.48.43.73.25 3.18l-.05.74.35.19c.34.18.44.19 2.21.2l1.86.03.28.32c.63.7.66 1.69.09 2.82-.4.77-1.27 1.81-3.4 4.03l-1.94 2.05-1.68 1.79c-.93.99-1.2 1.59-1.2 2.74 0 .71 0 .72-1.68.83l-1.9.14c-.5.05-.5.05-.66-.22zm-75.03-2.8a9.26 9.26 0 01-4.93-3 63.56 63.56 0 01-2.11-2.58 189.99 189.99 0 01-2.35-3.18 80.45 80.45 0 00-.69-.97l-1.94-2.68-.18-.25.54-.25c.9-.41 2.29-.87 3.38-1.1.9-.2 1.2-.22 2.58-.22.86 0 1.73.02 1.92.05a13.1 13.1 0 018.96 5.8c.64.97.75 1.14 1.26 2.2.61 1.29.87 2.15.87 2.93a2 2 0 01-.73 1.67c-.68.63-2.45 1.34-3.94 1.58-.62.1-2.14.1-2.64 0zm-19.07-.49c-1.09-.12-3.52-.86-8.05-2.45a20.39 20.39 0 01-2.23-.85c0-.12.84-1.13 1.52-1.84a13.18 13.18 0 016.36-3.85 7.13 7.13 0 012.54-.26c1.5 0 1.6.01 2.55.26 1.9.5 3.78 1.52 4.78 2.59.87.94.79 1.72-.34 3.13-1.53 1.92-3.36 3.06-5.3 3.28-.77.1-1 .09-1.83 0zm49.32-3.68c-.81-.1-2.06-.44-2.65-.72-1.02-.5-1.24-1.12-.87-2.43.14-.5.83-1.9 1.21-2.48a9.9 9.9 0 015.77-4.12 9.11 9.11 0 012.84-.31c1.38 0 2.66.21 4 .64l.89.29-.26.33-.34.43-1.05 1.35a87.15 87.15 0 01-2.56 3.25c-1.53 1.88-2.19 2.5-3.25 3.08a6.46 6.46 0 01-3.73.7zM98.55 61.2c-.6-.06-.78-.16-1.03-.59a5.4 5.4 0 01-.5-2.42c-.08-1.76.3-3 1.2-4.02a9.78 9.78 0 012.54-1.85c.87-.52 3.8-2.16 4.01-2.25.12-.05.33 1.4.38 2.55.1 3.02-.67 5.21-2.42 6.88-1.18 1.1-2.9 1.81-4.18 1.7zm-47.3-1.32a7.4 7.4 0 01-2.16-.86 7.56 7.56 0 01-1.92-2.07l-.9-1.28a565 565 0 00-3.15-4.46 21.38 21.38 0 01-1.65-2.43c-.08-.3.13-.62 1.02-1.59a5.9 5.9 0 001.11-1.5c.5-1 .68-2.29.48-3.26-.06-.32-.05-.37.1-.5.16-.14.28-.15.94-.12.6.04.96.11 1.69.36 1.72.6 2.57 1.1 2.88 1.7.46.9.42 2.82-.12 5.7-.13.7-.19 2.08-.12 2.7.11.97.35 1.44 1.1 2.19 1.39 1.34 2.96 1.67 3.97.82.38-.32.49-.66.42-1.33-.04-.5-.03-.6.12-.78.3-.4.63-.33.82.16.08.2-.03 1.04-.33 2.62l-.2 1c-.3 1.61-.48 2-1.09 2.42-.77.52-1.93.72-3 .51zm-3.02-9.55c.26-.18.37-.86.33-2.04-.03-.83-.06-1.06-.2-1.29-.33-.57-1.34-1.12-2.28-1.25-.43-.06-.87.06-1.08.3-.15.16-.15.17.09.62.38.74 2.1 3.27 2.4 3.54.32.27.48.3.74.12zm102.43 9.13l-.35-.07c-.23-.05-1-.77-1.25-1.16a5.3 5.3 0 01-.5-3.85c.17-.74.67-1.55 2.67-4.4l2.42-3.46a34.7 34.7 0 011.65-2.26c.13-.08.51.02 1.33.36 1.54.64 1.58.65 2.53.65 1.02 0 1.54-.1 2.3-.48.64-.32.73-.33.88-.1.37.6.43.93.43 2.63 0 1.84-.08 2.26-.55 2.78-.51.6-2.31 1.25-4.22 1.55-.33.06-.84.15-1.13.22l-.64.15c-1.14.26-2.28.85-2.68 1.4-.76 1.03-1.11 2.5-.84 3.47.18.65.96 1.34 1.52 1.34.1 0 .4-.09.63-.2.52-.24.84-.25 1.05-.04.21.21.2.3-.06.55-.18.19-.37.25-1.14.4-1.87.35-3.74.6-4.05.52zm6.42-8.64a6.88 6.88 0 001.8-.78c.25-.18.34-.32.45-.68.15-.54.18-1.64.04-2.05-.11-.34-.6-.8-.76-.74-.21.08-1.17 1.3-2.18 2.74-.6.87-.7 1.13-.51 1.47.1.19.56.2 1.16.04zm-16.37 2.73c-1.05-.5-1.8-1.64-2.04-3.13-.2-1.2 0-2.27.64-3.5a1682.3 1682.3 0 012.73-5.25l1.14-2.19c.4-.76.79-1.42.87-1.46.16-.08.82.04 2.16.4 1.38.38 2.9.1 4.12-.78.33-.23.42-.26.58-.2.27.13.6.84.8 1.74.11.45.27 1.83.27 2.29 0 1.07-.26 1.56-1.16 2.18-.65.45-1.44.78-3.49 1.47-2.21.74-3.51 1.48-3.9 2.23-.26.51-.51 1.4-.56 1.98-.09 1.15.26 2.02.98 2.44.5.3.88.34 1.24.13.8-.46.94-.5 1.2-.37.12.06.25.17.27.24.08.22-.32.58-.85.77-1.5.52-4 1.2-4.39 1.2-.1 0-.38-.09-.61-.2zm6.13-9.35c1.63-.79 1.88-1.1 1.85-2.27-.02-.86-.22-1.46-.59-1.8-.15-.15-.34-.26-.4-.26-.21 0-1.01 1.25-1.93 3.02-.51 1-.57 1.18-.4 1.44.2.3.67.26 1.47-.13zm-84.32 9.4c-1.3-.2-3.18-.73-3.52-.98-.17-.12-.24-.33-.5-1.47a15.5 15.5 0 00-.42-1.6 29.7 29.7 0 01-.32-.74 150.88 150.88 0 00-4.34-8.42 227.43 227.43 0 00-1.98-3.65 272.15 272.15 0 01-.85-1.49c-1-1.78-1.34-2.25-1.83-2.57-.5-.31-.59-.47-.4-.65.12-.12.19-.11.87.12.42.14.9.26 1.08.26h.34l.2-.7c.49-1.58.76-2.28 1.1-2.76.39-.55.8-.92 1.12-1 .35-.08.4.14.45 1.68.06 2.59.39 3.43 3.85 9.87l2.97 5.54a41.53 41.53 0 001.63 2.86 9.43 9.43 0 002 1.91c.5.35.52.38.54.74.05.76-.38 2.63-.69 2.97-.1.1-.24.14-.61.13a7 7 0 01-.69-.04zm8.47-3.72c-.47-.24-1.49-.61-3.2-1.16-.93-.3-.94-.3-.94-.55 0-.31-.19-1.38-.36-2.03-.1-.43-.53-1.51-1.76-4.55l-.87-2.13c-1.44-3.56-1.68-4.13-1.77-4.19-.16-.1-.52-.06-1.01.11-.26.1-.55.14-.64.12-.2-.07-.5-.57-.45-.75.02-.08.26-.33.52-.56a5.5 5.5 0 001.48-2.26c.17-.52.2-.73.15-1.22a23.11 23.11 0 01-.05-.83 7.6 7.6 0 01.53-2.54c.13-.24.42-.47.59-.47.05 0 .23.43.88 2.05.58 1.42.57 1.42.87 2.05.14.32.29.5.48.6.27.14.28.14 1.18-.11.5-.15 1.02-.32 1.15-.38.21-.11.25-.1.38.02.2.2.29.58.2.88-.08.34-.39.56-1.38 1.01l-.8.37v.5c.02.54.09.74 1.32 3.76a80.36 80.36 0 011.52 3.93c.58 1.47.8 2.1.96 2.83.32 1.35.28 1.32 1.77 1.63l1.1.23c.14.04.18.1.18.31 0 .27-.14.75-.35 1.22-.34.72-.53 1.19-.65 1.61-.14.48-.31.75-.47.75-.05 0-.3-.11-.56-.25zm58.64-1.93a76.23 76.23 0 00-1.52-2.52 3.34 3.34 0 01-.43-.88c0-.2.28-.6.86-1.24.22-.24.47-.53.54-.64.07-.1.58-1.46 1.15-3a515.24 515.24 0 011.38-3.78c.47-1.24.47-1.5.02-2.39l-.33-.65.35-.32c.54-.5 2.75-1.65 3.17-1.65.2 0 .7.43.85.73.07.12.26.62.43 1.1.5 1.38.6 1.52 1.03 1.4a6.6 6.6 0 001.4-.77c.42-.31 1.2-.7 1.41-.7.54 0 2.23 1.39 2.17 1.78-.02.13-.26.37-.77.76-.41.31-1 .82-1.32 1.13-.98.95-1.33 1.23-1.52 1.23-.2 0-.22-.05-.55-.88-.34-.88-.75-1.22-1.22-1.01-.55.23-1.05 1.02-1.81 2.85l-.5 1.16a49 49 0 00-1.56 4.37c-.23 1.1-.09 1.86.4 2.17.36.22.52.2.9-.08.45-.33.61-.62.82-1.47.1-.4.23-.82.3-.94.2-.42.59-.5.94-.23.18.14.21.23.21.55 0 .9-.65 1.95-1.68 2.71-.47.35-2.28 1.27-3.49 1.78-1.15.49-.98.55-1.63-.57zm-50.06-.79c-.57-.18-3.45-1.6-3.78-1.87l-.23-.19.12-1.15c.18-1.6.05-2.64-.59-4.8-.53-1.8-.86-2.97-1.1-3.9a8.35 8.35 0 00-.4-1.21c-.16-.34-.24-.41-1.16-1.11-.64-.5-.8-.75-.73-1.15a12.9 12.9 0 011.6-3.46l.2-.2.76.22c.94.27 2.37.88 2.8 1.22.18.13.34.32.36.42.01.1-.07.47-.19.84-.2.6-.2.7-.12 1.14.13.68.6 2.39 1.36 4.94l.6 2c.83 2.79.92 3.03 1.25 3.44.17.22.55.57.84.78.61.44.6.34.14 1.72-.36 1.08-.92 2.29-1.11 2.39-.11.05-.29.03-.62-.07zm39.15.03c-4.22-.52-8.18-2.58-10.47-5.43a7.99 7.99 0 01-1.69-5.95c.5-3.46 1.31-5.74 2.63-7.38a16.16 16.16 0 014.7-3.7c.56-.3.76-.37 1.2-.4.64-.04.84.05.63.28-.07.08-.34.3-.6.46-1 .69-1.4 1.1-1.58 1.71-.05.2-.05.2.38.14.6-.08 2.44-.72 3.47-1.22 1.6-.77 1.94-1.26 1.3-1.94-.61-.66-3.54-1.7-5.42-1.94-2.14-.26-3.66.04-4.56.91a5.4 5.4 0 00-1.22 3.13c0 .88-1 .6-1.44-.42a5.8 5.8 0 01.48-5.38 6.9 6.9 0 016.04-2.87c.4.03.84.07.98.1 2.51.5 4.08 1 6.93 2.24 2.99 1.3 4.32 1.82 5.4 2.1 1.52.38 2.23.25 2.28-.42.02-.25-.02-.36-.19-.54-.26-.27-.2-.45.13-.45.36 0 .66.35.83.97.34 1.21-.15 2.21-1.45 2.97-.6.36-1.13.53-1.97.66-.78.12-1.17.1-2.68-.07-1.36-.17-1.6-.15-1.8.12-.16.2-.17.29-.75 4.6l-.6 4.46-.56 4.18-.27 2.02a6.48 6.48 0 00-.14 1.92c.2.54 1.05.72 4.25.9 1.28.06 1.72.11 1.75.19.06.17-.55.68-1.56 1.3a10.31 10.31 0 00-2.5 1.9c-.24.28-.53.57-.65.66-.23.16-.81.25-1.28.2zm-1.05-5.42c.38-.2.47-.5.72-2.47.14-1.04.26-1.97.29-2.08.2-1.03-.17-1.56-1.29-1.76-.38-.07-.43-.06-1.12.28-2.03 1-3.49 2.07-3.49 2.57 0 .3.09.44.8 1.27 1.33 1.54 3.3 2.6 4.09 2.19zm-4.97-5.49c.25-.31.3-.61.56-2.8.13-1.1.32-2.6.4-3.36.3-2.27.18-3.09-.4-3.09-.63 0-1.34 1.55-1.89 4.13-.2.91-.24 3.37-.08 4.08.25 1.05.98 1.6 1.4 1.04zm6.22-1.4c.07-.24.15-.72.17-1.08l.05-.65-.29-.1c-.3-.1-.5-.04-.68.19-.06.06-.14.44-.19.83-.1.8-.02 1.1.33 1.28.29.14.46 0 .61-.48zm.27-2.53c.14-.12.2-.36.36-1.67a125.95 125.95 0 01.48-3.5c.17-1.34.17-1.42.04-1.58-.17-.22-.31-.22-.58 0-.44.34-.42.22-.97 4.47a24.08 24.08 0 00-.23 2.15c.04.1.37.25.6.26.07 0 .2-.06.3-.13zM87.97 45c-1.6-.35-2.51-1.32-3.2-3.38-.32-.92-.74-2.83-1.04-4.72a72.48 72.48 0 00-.25-1.45l-.27-1.72a126.12 126.12 0 00-.48-3l-.15-.9.37-.27c.2-.15.68-.39 1.05-.53 1.76-.66 2.05-.9 2.86-2.18l.85-1.32c.37-.55.4-.57.6-.5a12.3 12.3 0 012.8 2.08c.4.57.15 1.68-.6 2.83-.28.42-.76.86-.94.86-.03 0-.37-.3-.76-.67-.99-.94-1.67-1.25-1.84-.82-.06.18 0 1.28.12 1.88l.25 1.66c.87 6.18.82 5.9 1.15 6.7.53 1.3 1.36 1.94 2.66 2.05.64.06.94-.06 1.85-.74.32-.24.64-.42.7-.41.07 0 .15.16.18.33.07.3.06.32-.75 1.32-1.81 2.23-2.21 2.66-2.6 2.8-.37.13-2.1.2-2.56.1zM73.02 26.37c-.22-.19-1.02-1.1-1.55-1.77-.3-.37-.31-.4-.31-.99 0-.53.04-.67.29-1.19.6-1.23 2.07-2.32 3.26-2.42.56-.05.72.04.71.4 0 .33-.17.72-.7 1.64-.41.74-.48.93-.86 2.7-.18.8-.52 1.81-.61 1.81a1.56 1.56 0 01-.24-.18z"/></svg>